<?xml version="1.0" standalone="no"?>
<!DOCTYPE svg PUBLIC "-//W3C//DTD SVG 20010904//EN"
 "http://www.w3.org/TR/2001/REC-SVG-20010904/DTD/svg10.dtd">
<svg version="1.0" xmlns="http://www.w3.org/2000/svg"
 width="174.000000pt" height="174.000000pt" viewBox="0 0 174.000000 174.000000"
 preserveAspectRatio="xMidYMid meet">
<metadata>
Created by potrace 1.14, written by Peter Selinger 2001-2017
</metadata>
<g transform="translate(0.000000,174.000000) scale(0.100000,-0.100000)"
fill="#000000" stroke="none">
<path d="M860 1540 c0 -5 5 -10 11 -10 5 0 7 5 4 10 -3 6 -8 10 -11 10 -2 0
-4 -4 -4 -10z"/>
<path d="M794 1490 c2 -14 -4 -42 -14 -62 -11 -23 -14 -41 -9 -51 15 -26 0
-47 -32 -45 -34 3 -35 8 -12 77 13 43 14 54 3 64 -9 9 -11 9 -6 0 8 -14 -15
-103 -27 -103 -5 0 -7 -12 -4 -27 2 -16 2 -22 0 -15 -3 8 -12 10 -25 7 -11 -4
-57 -7 -104 -7 -83 0 -85 0 -100 -29 -8 -17 -12 -39 -8 -51 4 -14 3 -18 -5
-14 -7 5 -19 -10 -32 -38 -21 -49 -38 -58 -46 -26 -3 11 -9 17 -14 14 -5 -3
-3 -14 3 -24 11 -16 9 -22 -7 -34 -19 -14 -19 -15 -1 -34 14 -16 15 -24 7 -39
-11 -17 -11 -17 -9 1 2 10 -3 21 -10 23 -7 3 -10 -1 -6 -10 4 -11 -2 -14 -25
-12 -28 2 -36 -4 -32 -27 0 -4 -11 -3 -25 2 -34 13 -41 13 -26 -2 14 -14 16
-32 3 -24 -5 4 -7 -3 -4 -14 3 -11 0 -20 -6 -20 -21 0 -7 -62 20 -91 21 -23
24 -29 11 -29 -11 0 -13 -3 -6 -8 13 -8 10 -34 -10 -82 -53 -126 -119 -280
-132 -310 -9 -19 -16 -36 -15 -37 0 -2 -11 -28 -25 -58 -27 -62 -25 -77 11
-71 37 7 43 13 56 59 7 23 17 48 22 55 6 8 5 12 -2 12 -8 0 -7 5 3 15 8 8 17
24 21 34 3 11 13 22 22 25 13 5 14 4 3 -9 -12 -14 -54 -123 -66 -171 -5 -19
-2 -20 93 -19 54 0 103 4 109 7 6 4 16 25 24 47 7 22 18 38 23 34 6 -3 7 -2 4
4 -3 5 -1 26 5 47 8 26 14 33 21 24 6 -9 7 -8 3 4 -7 24 37 138 59 150 12 7
14 13 6 17 -16 11 15 84 32 75 9 -5 9 -4 1 5 -9 9 0 42 35 129 26 64 51 126
55 137 7 18 10 15 23 -19 14 -32 14 -39 2 -47 -11 -7 -10 -9 5 -9 14 0 16 -3
7 -14 -15 -17 -5 -44 20 -51 18 -6 25 -22 32 -72 2 -12 6 -26 10 -29 4 -4 7
-12 7 -19 0 -13 -127 -15 -147 -2 -15 10 -18 4 -51 -96 -20 -59 -32 -82 -41
-79 -10 3 -12 -1 -8 -12 4 -10 7 -24 7 -32 0 -18 76 -20 83 -1 4 9 6 9 6 0 1
-18 107 -18 114 0 4 9 6 9 6 0 1 -8 14 -13 31 -13 23 0 28 -4 24 -18 -5 -16
-5 -16 6 1 7 11 24 17 45 17 28 0 37 -6 50 -30 26 -50 74 -98 130 -130 43 -25
69 -32 127 -35 40 -3 78 -1 83 3 12 8 7 235 -5 227 -4 -3 -14 3 -21 13 -13 15
-12 16 3 4 9 -7 19 -9 22 -4 3 5 -6 14 -19 20 -25 11 -31 6 -26 -21 1 -5 -3
-5 -9 -2 -6 4 -10 14 -8 23 2 10 -7 25 -19 35 -13 10 -23 27 -23 37 0 9 -6 23
-14 29 -16 13 -64 118 -66 146 -7 70 10 89 53 60 19 -14 57 -9 69 9 19 29 -52
93 -88 79 -13 -5 -12 1 6 25 13 18 28 32 32 32 5 0 7 4 4 8 -3 5 6 19 19 30
19 17 25 18 25 7 0 -8 7 -15 16 -15 13 0 14 3 5 14 -10 12 -8 19 6 33 11 11
25 17 31 15 9 -3 12 22 12 88 0 54 4 89 9 85 5 -3 12 -1 15 4 8 12 -23 43 -34
36 -5 -3 -11 -1 -15 5 -3 5 1 10 9 10 9 0 16 7 16 15 0 18 -20 19 -85 2 l-50
-14 38 -7 c20 -4 42 -4 47 -1 6 3 10 2 10 -3 0 -5 -14 -12 -31 -16 -17 -3 -28
-10 -24 -16 4 -6 -5 -10 -22 -10 -27 1 -87 -6 -128 -15 -11 -3 -36 -20 -56
-39 -20 -19 -39 -32 -43 -29 -10 11 -7 41 6 45 7 3 8 10 3 17 -6 11 -10 10
-17 -3 -13 -23 -28 -20 -28 7 0 16 3 18 9 9 7 -11 9 -11 14 2 8 20 -7 20 -36
1 -21 -13 -23 -13 -23 5 0 11 3 20 7 20 4 0 10 17 15 38 4 20 8 39 9 42 1 3 6
20 10 37 4 18 11 30 16 28 4 -3 10 -1 14 5 3 5 -1 10 -9 10 -8 0 -22 -12 -31
-27 -15 -27 -15 -27 -9 -3 4 14 12 28 19 33 15 8 14 24 -3 52 -11 19 -12 18
-8 -5z m-44 -185 c0 -8 -4 -15 -10 -15 -5 0 -10 7 -10 15 0 8 5 15 10 15 6 0
10 -7 10 -15z m-170 -15 c0 -5 -5 -10 -11 -10 -5 0 -7 5 -4 10 3 6 8 10 11 10
2 0 4 -4 4 -10z m120 -40 c8 -5 11 -10 5 -10 -5 0 -17 5 -25 10 -8 5 -10 10
-5 10 6 0 17 -5 25 -10z m-190 -19 c0 -17 -15 -19 -28 -5 -11 12 -9 14 8 14
11 0 20 -4 20 -9z m274 -49 c-6 -14 -8 -13 -14 8 -9 31 0 48 12 26 5 -10 6
-25 2 -34z m-36 21 c-1 -10 2 -25 7 -33 7 -13 6 -13 -7 -2 -9 7 -14 21 -11 32
7 25 15 26 11 3z m-368 -93 c0 -5 -2 -10 -4 -10 -3 0 -8 5 -11 10 -3 6 -1 10
4 10 6 0 11 -4 11 -10z m25 0 c3 -5 1 -10 -4 -10 -6 0 -11 5 -11 10 0 6 2 10
4 10 3 0 8 -4 11 -10z m0 -30 c3 -6 -1 -7 -9 -4 -18 7 -21 14 -7 14 6 0 13 -4
16 -10z m342 -12 c-3 -8 -6 -5 -6 6 -1 11 2 17 5 13 3 -3 4 -12 1 -19z m-51
-13 c-1 -8 -5 -18 -9 -21 -4 -4 -7 -18 -7 -31 0 -15 -4 -22 -11 -17 -6 3 -8
17 -5 30 4 16 2 22 -6 20 -7 -1 -10 -1 -5 1 4 3 4 10 1 15 -4 6 -2 8 4 4 6 -3
13 -2 17 4 9 15 24 12 21 -5z m-68 -20 c-3 -2 -62 -10 -146 -20 -20 -2 -30 1
-26 7 3 5 15 8 25 5 11 -3 19 -2 19 3 0 4 23 8 52 9 28 0 53 3 56 6 3 2 9 2
14 -1 5 -3 8 -7 6 -9z m82 -514 c0 -5 -11 -8 -25 -8 -14 0 -25 3 -25 8 0 5 11
9 25 9 14 0 25 -4 25 -9z m-337 -8 c-7 -2 -19 -2 -25 0 -7 3 -2 5 12 5 14 0
19 -2 13 -5z m122 -23 c3 -5 1 -10 -4 -10 -6 0 -11 5 -11 10 0 6 2 10 4 10 3
0 8 -4 11 -10z m673 -47 c2 -30 0 -34 -11 -25 -8 7 -16 11 -18 9 -2 -1 2 3 9
9 7 7 12 16 11 20 -2 12 0 24 4 24 2 0 4 -16 5 -37z m-838 7 c0 -5 -2 -10 -4
-10 -3 0 -8 5 -11 10 -3 6 -1 10 4 10 6 0 11 -4 11 -10z m590 -66 c0 -8 -5
-12 -10 -9 -6 4 -8 11 -5 16 9 14 15 11 15 -7z"/>
<path d="M1385 1500 c-10 -17 12 -37 25 -24 8 8 6 15 -4 23 -10 9 -16 9 -21 1z"/>
<path d="M1275 1460 c-3 -5 1 -10 10 -10 9 0 13 5 10 10 -3 6 -8 10 -10 10 -2
0 -7 -4 -10 -10z"/>
<path d="M1212 1451 c-10 -6 -10 -10 0 -19 8 -6 19 -7 26 -3 10 6 10 10 0 19
-8 6 -19 7 -26 3z"/>
<path d="M1676 1445 c-10 -8 -22 -12 -27 -10 -4 3 -10 2 -13 -3 -11 -17 43
-10 59 8 21 23 9 26 -19 5z"/>
<path d="M410 1445 c0 -5 5 -17 10 -25 5 -8 10 -10 10 -5 0 6 -5 17 -10 25 -5
8 -10 11 -10 5z"/>
<path d="M1327 1444 c-8 -8 1 -24 14 -24 5 0 9 7 9 15 0 15 -12 20 -23 9z"/>
<path d="M1413 1408 c-5 -7 -8 -19 -7 -25 1 -7 2 -20 3 -29 0 -8 5 -13 10 -9
5 3 13 0 17 -6 5 -9 -6 -10 -42 -4 -27 4 -50 11 -52 15 -2 5 -13 5 -25 1 -12
-4 -27 -6 -33 -4 -16 6 -20 -19 -19 -142 1 -107 1 -109 25 -115 13 -3 26 -12
28 -19 3 -8 0 -11 -7 -7 -7 4 -9 2 -5 -8 11 -30 54 -30 54 0 0 22 17 17 79
-20 60 -37 93 -41 97 -11 1 9 15 30 30 46 22 23 27 38 27 73 -1 31 4 46 14 51
12 4 13 2 6 -7 -5 -7 -6 -24 -2 -38 4 -14 7 -19 8 -12 1 9 9 11 24 7 16 -5 18
-4 7 4 -12 8 -12 12 3 29 16 18 16 20 -4 37 -17 16 -22 17 -29 5 -8 -12 -10
-12 -15 2 -4 10 -4 22 0 28 4 6 3 10 -2 9 -4 -1 -16 1 -26 6 -17 7 -17 8 0 28
15 17 15 19 2 15 -12 -5 -15 -1 -11 18 2 13 9 24 16 25 6 1 0 4 -14 8 -14 4
-35 4 -48 -1 -28 -10 -49 0 -65 32 -15 28 -31 35 -44 18z"/>
<path d="M1592 1398 c-7 -7 -12 -16 -12 -21 0 -5 7 -1 16 8 9 9 14 18 12 20
-2 3 -10 -1 -16 -7z"/>
<path d="M635 1370 c-3 -6 1 -7 9 -4 18 7 21 14 7 14 -6 0 -13 -4 -16 -10z"/>
<path d="M745 1360 c-3 -5 -1 -10 4 -10 6 0 11 5 11 10 0 6 -2 10 -4 10 -3 0
-8 -4 -11 -10z"/>
<path d="M1620 1366 c0 -2 9 -6 20 -9 11 -3 18 -1 14 4 -5 9 -34 13 -34 5z"/>
<path d="M390 1340 c0 -6 7 -13 15 -16 8 -3 17 -14 20 -25 7 -22 25 -26 25 -5
0 8 -13 24 -30 36 -16 12 -30 16 -30 10z"/>
<path d="M231 1264 c0 -11 3 -14 6 -6 3 7 2 16 -1 19 -3 4 -6 -2 -5 -13z"/>
<path d="M197 1230 c-3 -11 -1 -18 4 -14 5 3 9 -2 9 -10 0 -9 5 -16 11 -16 5
0 7 -4 4 -10 -11 -17 -37 -11 -42 10 -3 11 -9 17 -15 14 -5 -3 -5 -11 2 -19 8
-10 4 -14 -20 -17 -16 -2 -35 0 -41 6 -8 8 -10 6 -7 -9 2 -11 8 -20 15 -20 13
0 27 -13 29 -26 1 -5 2 -14 3 -20 0 -5 6 -7 12 -4 6 4 8 13 5 21 -7 18 12 28
28 14 11 -8 16 -8 20 2 3 7 4 3 2 -9 -2 -13 0 -23 5 -23 5 0 9 5 9 11 0 8 5 8
15 -1 11 -9 18 -10 28 -1 8 6 17 7 22 3 4 -4 5 3 2 16 -3 13 -1 22 6 22 6 0
-13 17 -41 37 -32 22 -51 42 -48 50 3 7 2 13 -3 13 -5 0 -11 -9 -14 -20z"/>
<path d="M402 1228 c-14 -14 -16 -28 -3 -28 5 0 11 9 14 20 6 23 5 24 -11 8z"/>
<path d="M310 1125 c0 -8 4 -15 10 -15 5 0 7 7 4 15 -4 8 -8 15 -10 15 -2 0
-4 -7 -4 -15z"/>
<path d="M76 1112 c-3 -6 -1 -14 5 -17 14 -9 20 -2 10 14 -6 8 -11 9 -15 3z"/>
<path d="M272 1093 c-22 -8 -34 -40 -16 -47 8 -3 12 -2 9 4 -3 6 -1 10 4 10 6
0 11 8 11 18 0 14 2 15 10 2 5 -8 10 -10 10 -5 0 6 5 3 10 -5 6 -9 10 -10 10
-3 0 15 -31 32 -48 26z"/>
<path d="M1195 1090 c-3 -5 1 -10 9 -10 8 0 18 5 21 10 3 6 -1 10 -9 10 -8 0
-18 -4 -21 -10z"/>
<path d="M216 1078 c3 -5 10 -6 15 -3 13 9 11 12 -6 12 -8 0 -12 -4 -9 -9z"/>
<path d="M85 1041 c-3 -5 -2 -12 3 -15 5 -3 9 1 9 9 0 17 -3 19 -12 6z"/>
<path d="M140 1028 c0 -13 4 -18 8 -13 9 13 35 13 44 0 4 -5 10 -6 14 -2 10 9
1 17 -25 22 -11 2 -26 7 -31 10 -6 3 -10 -4 -10 -17z"/>
<path d="M1285 990 c-10 -17 12 -37 25 -24 8 8 6 15 -4 23 -10 9 -16 9 -21 1z"/>
<path d="M117 959 c-7 -28 -6 -31 10 -14 6 6 8 18 3 24 -5 9 -9 5 -13 -10z"/>
<path d="M1203 944 c-7 -19 11 -39 26 -30 16 10 13 33 -4 40 -9 3 -18 -1 -22
-10z"/>
<path d="M70 900 c0 -5 7 -7 15 -4 8 4 15 8 15 10 0 2 -7 4 -15 4 -8 0 -15 -4
-15 -10z"/>
<path d="M1268 886 c-3 -9 -2 -162 1 -190 1 -4 8 -6 16 -3 8 4 17 3 19 -2 3
-4 32 -6 66 -4 38 2 60 -1 60 -7 0 -6 6 -8 13 -4 9 6 9 5 0 -7 -7 -9 -11 -33
-9 -54 2 -26 -3 -44 -15 -56 -20 -20 -79 -39 -120 -39 -32 0 -36 -9 -33 -75 1
-36 -3 -53 -15 -62 -15 -12 -14 -13 1 -7 15 5 17 0 14 -38 -5 -57 2 -67 44
-64 19 2 47 4 61 5 18 1 28 8 32 21 3 11 11 20 19 20 10 0 10 -2 -2 -10 -13
-8 -12 -10 1 -15 21 -8 72 12 64 25 -3 5 -1 10 4 10 6 0 11 -5 11 -10 0 -18
120 49 121 68 2 33 1 67 -5 107 -7 50 4 73 22 45 7 -12 8 -20 2 -20 -5 0 -10
-9 -10 -20 0 -11 4 -20 10 -20 6 0 6 -9 0 -25 -9 -25 3 -46 14 -23 3 7 4 1 3
-14 l-4 -27 26 18 c26 19 27 21 26 132 0 82 -4 114 -13 117 -10 3 -10 7 0 20
14 17 19 172 6 172 -4 0 -8 -7 -8 -16 0 -8 -5 -12 -11 -9 -7 5 -3 15 10 29 11
12 17 26 13 32 -9 14 -82 17 -82 4 0 -6 -5 -10 -11 -10 -5 0 -7 5 -4 10 9 14
-8 12 -24 -2 -8 -7 -11 -8 -8 -2 5 8 -37 11 -148 11 -104 0 -155 -3 -157 -11z
m352 -58 c0 -36 -4 -35 -14 5 -4 16 -2 27 4 27 5 0 10 -14 10 -32z m17 -10
c-3 -7 -5 -2 -5 12 0 14 2 19 5 13 2 -7 2 -19 0 -25z m-129 -116 c2 -7 -2 -10
-12 -6 -9 3 -16 11 -16 16 0 13 23 5 28 -10z m125 -89 c4 -6 3 -14 -2 -17 -12
-8 -21 30 -20 79 l2 40 6 -45 c4 -25 10 -50 14 -57z m27 7 c0 -5 -2 -10 -4
-10 -3 0 -8 5 -11 10 -3 6 -1 10 4 10 6 0 11 -4 11 -10z m-366 -226 c3 -8 2
-12 -4 -9 -6 3 -10 10 -10 16 0 14 7 11 14 -7z m101 -54 c3 -5 1 -10 -4 -10
-6 0 -11 5 -11 10 0 6 2 10 4 10 3 0 8 -4 11 -10z"/>
<path d="M220 859 c0 -5 5 -7 10 -4 6 3 10 8 10 11 0 2 -4 4 -10 4 -5 0 -10
-5 -10 -11z"/>
<path d="M574 837 c-3 -9 -1 -24 4 -33 9 -16 10 -15 17 5 8 27 -11 54 -21 28z"/>
<path d="M170 830 c0 -5 5 -10 10 -10 6 0 10 5 10 10 0 6 -4 10 -10 10 -5 0
-10 -4 -10 -10z"/>
<path d="M1193 824 c-3 -8 2 -23 11 -32 16 -16 18 -16 31 2 11 14 12 23 4 33
-15 18 -38 16 -46 -3z"/>
<path d="M80 821 c0 -6 4 -13 10 -16 6 -3 7 1 4 9 -7 18 -14 21 -14 7z"/>
<path d="M635 810 c4 -6 11 -8 16 -5 14 9 11 15 -7 15 -8 0 -12 -5 -9 -10z"/>
<path d="M1050 666 c0 -2 8 -10 18 -17 15 -13 16 -12 3 4 -13 16 -21 21 -21
13z"/>
<path d="M1190 410 c0 -5 5 -10 11 -10 5 0 7 5 4 10 -3 6 -8 10 -11 10 -2 0
-4 -4 -4 -10z"/>
<path d="M1715 340 c-3 -5 -1 -10 4 -10 6 0 11 5 11 10 0 6 -2 10 -4 10 -3 0
-8 -4 -11 -10z"/>
<path d="M755 291 c-3 -5 -1 -12 5 -16 5 -3 10 1 10 9 0 18 -6 21 -15 7z"/>
<path d="M954 185 c1 -26 20 -34 30 -12 3 6 5 -3 3 -20 -4 -35 12 -44 33 -19
17 21 9 61 -13 60 -9 -1 -17 2 -17 7 0 5 -9 9 -19 9 -14 0 -19 -7 -17 -25z"/>
<path d="M1242 73 c2 -17 9 -28 18 -28 9 0 16 11 18 28 3 22 -1 27 -18 27 -17
0 -21 -5 -18 -27z"/>
<path d="M970 80 c0 -5 5 -10 10 -10 6 0 10 5 10 10 0 6 -4 10 -10 10 -5 0
-10 -4 -10 -10z"/>
<path d="M1420 65 c0 -8 5 -15 10 -15 6 0 10 7 10 15 0 8 -4 15 -10 15 -5 0
-10 -7 -10 -15z"/>
</g>
</svg>
