<?xml version="1.0" standalone="no"?>
<!DOCTYPE svg PUBLIC "-//W3C//DTD SVG 20010904//EN"
 "http://www.w3.org/TR/2001/REC-SVG-20010904/DTD/svg10.dtd">
<svg version="1.0" xmlns="http://www.w3.org/2000/svg"
 width="281.000000pt" height="281.000000pt" viewBox="0 0 281.000000 281.000000"
 preserveAspectRatio="xMidYMid meet">
<metadata>
Created by potrace 1.14, written by Peter Selinger 2001-2017
</metadata>
<g transform="translate(0.000000,281.000000) scale(0.100000,-0.100000)"
fill="#000000" stroke="none">
<path d="M620 2800 c-4 -3 -7 -36 -7 -75 l1 -70 -74 0 -75 -1 -3 -74 c-2 -41
-7 -77 -12 -80 -5 -3 -39 -5 -75 -4 l-65 3 -1 -32 c-1 -18 -1 -51 0 -74 2 -48
4 -47 -110 -45 l-46 1 -1 -67 c0 -37 -1 -72 -1 -78 -1 -7 -28 -11 -73 -10
l-73 1 -3 -1098 -2 -1097 482 2 483 3 1 68 c0 39 5 72 11 75 7 4 41 7 77 6 43
-1 66 2 67 10 1 6 2 36 4 66 1 30 3 61 4 68 1 8 16 11 49 10 l47 -3 0 -152 0
-153 483 0 c452 0 482 1 483 18 1 9 1 41 1 69 0 29 5 56 11 60 6 4 41 7 77 7
l65 1 2 65 c1 36 2 70 2 77 1 7 16 12 39 11 20 0 55 0 78 1 l40 1 -1 75 -2 75
74 0 c40 0 73 3 74 8 1 4 2 36 4 72 1 36 3 67 4 70 0 3 29 5 64 4 34 -1 67 1
73 3 11 4 16 2182 5 2184 -23 4 -2175 3 -2181 -1z m1527 -402 c2 -54 10 -50
-99 -51 l-58 0 0 -77 0 -76 -657 2 c-362 1 -660 2 -663 3 -3 0 -7 21 -7 46 -2
50 10 58 78 52 61 -5 74 4 75 54 1 24 2 56 3 70 l1 26 663 -1 662 -1 2 -47z
m296 -257 c4 -1 6 -299 5 -662 l-3 -662 -72 0 -72 0 -3 -76 -3 -76 -50 0 -50
0 0 663 -1 662 77 0 77 0 0 69 c0 38 2 73 5 77 4 7 42 9 90 5z m-607 -1043 l1
-738 -41 -1 c-41 -1 -196 0 -207 1 -3 0 -6 133 -5 296 1 163 -1 299 -4 304 -4
6 -938 8 -961 2 -4 -1 -6 -137 -5 -302 l1 -300 -30 -1 c-160 -4 -219 0 -225
15 -4 12 -5 1399 -1 1452 1 8 200 11 739 10 l737 -1 1 -737z"/>
<path d="M615 1580 c-1 -3 -2 -83 -2 -177 0 -152 2 -173 16 -174 23 -1 912 -1
936 0 19 1 20 7 18 168 -1 93 -2 173 -2 178 -1 10 -960 15 -966 5z"/>
</g>
</svg>
