<?xml version="1.0" encoding="utf-8"?>
<!-- Generator: Adobe Illustrator 23.0.1, SVG Export Plug-In . SVG Version: 6.00 Build 0)  -->
<svg version="1.1" id="Capa_1" xmlns="http://www.w3.org/2000/svg" xmlns:xlink="http://www.w3.org/1999/xlink" x="0px" y="0px"
	 viewBox="0 0 92.8 92.8" style="enable-background:new 0 0 92.8 92.8;" xml:space="preserve">
<style type="text/css">
	.st0{fill:#FFFFFF;stroke:#333D79;stroke-width:2.5;stroke-miterlimit:10;}
</style>
<g>
	<path class="st0" d="M87.1,91.1H5.8c-1.8,0-3.4-1.6-3.4-3.5V75.3c0-1.9,1.5-3.5,3.4-3.5H87c1.8,0,3.4,1.6,3.4,3.5v12.3
		C90.5,89.5,88.9,91.1,87.1,91.1z"/>
	<path class="st0" d="M87.1,21.9H5.8c-1.8,0-3.4-1.6-3.4-3.5V6.1c0-1.9,1.5-3.5,3.4-3.5H87c1.8,0,3.4,1.6,3.4,3.5v12.3
		C90.5,20.4,88.9,21.9,87.1,21.9z"/>
	<path class="st0" d="M87.1,56.1H5.8c-1.8,0-3.4-1.6-3.4-3.5V40.3c0-1.9,1.5-3.5,3.4-3.5H87c1.8,0,3.4,1.6,3.4,3.5v12.3
		C90.5,54.5,88.9,56.1,87.1,56.1z"/>
</g>
</svg>
