<svg id="Capa_1" data-name="Capa 1" xmlns="http://www.w3.org/2000/svg" viewBox="0 0 81.31 81.8"><defs><style>.cls-1{opacity:0.9;}.cls-2{fill:#fff;stroke:#333;stroke-miterlimit:10;stroke-width:1.5px;}</style></defs><title>menu_outlined_icon</title><g class="cls-1"><path class="cls-2" d="M81.2,81H7.5a3.18,3.18,0,0,1-3.1-3.1V67a3.12,3.12,0,0,1,3.1-3.1H81.1A3.18,3.18,0,0,1,84.2,67V77.9A3,3,0,0,1,81.2,81Z" transform="translate(-3.65 0.05)"/><path class="cls-2" d="M81.2,17.8H7.5a3.18,3.18,0,0,1-3.1-3.1V3.8A3.12,3.12,0,0,1,7.5.7H81.1a3.18,3.18,0,0,1,3.1,3.1V14.7A2.91,2.91,0,0,1,81.2,17.8Z" transform="translate(-3.65 0.05)"/><path class="cls-2" d="M81.2,49H7.5a3.18,3.18,0,0,1-3.1-3.1V35a3.12,3.12,0,0,1,3.1-3.1H81.1A3.18,3.18,0,0,1,84.2,35V45.9A3,3,0,0,1,81.2,49Z" transform="translate(-3.65 0.05)"/></g></svg>