<svg id="b53a807e-26bd-423b-9266-af2eb023e0f0" xmlns="http://www.w3.org/2000/svg" viewBox="0 0 924.18 818.89"><defs><style>.cls-1,.cls-2{fill:#f4f7fa;}.cls-1,.cls-14,.cls-4{opacity:0.1;}.cls-1,.cls-4,.cls-7{isolation:isolate;}.cls-15,.cls-3{fill:none;stroke-miterlimit:10;}.cls-3{stroke:#565987;}.cls-5{fill:#ffd037;}.cls-6{fill:#a8a8a8;}.cls-7{opacity:0.2;}.cls-8{fill:#65617d;}.cls-9{fill:#3f3d56;}.cls-10{fill:#be6f72;}.cls-11{fill:#fbbebe;}.cls-12{fill:#e3e8f4;}.cls-13{fill:#fff;}.cls-15{stroke:#3f3d56;}</style></defs><title>mobiletestings</title><path class="cls-1" d="M414,316.83c-36.12-11.69-74.31-21.49-113.34-20.48-57.38,1.49-112.55,28.23-139.76,67.75-23,33.49-26.07,72.85-36.11,110.09-12.37,45.88-35.85,89.42-60.91,132-13.46,22.87-27.66,46.22-30,71.35-3.21,34.89,17.93,69.77,51.26,93.15s77.68,35.84,122.24,38.75c23.71,1.54,48.49.35,69.6-8.19,22.33-9,38.66-25.47,61.08-34.37,20.78-8.24,45-9.3,68.31-8.09a380.16,380.16,0,0,1,89.06,15.26c32.49,9.72,62.68,23.71,95.1,33.57s68.66,15.44,101.88,7.51c31.19-7.44,55.93-25.78,78.24-44.36a851.14,851.14,0,0,0,100-98c20.15-23.39,38.92-48.09,47.92-75.42,17.19-52.26-5.84-111.43-57.37-147.42-42.69-29.83-100.12-43-156.36-51-51.29-7.37-110.63-8.1-157.77-26.87C502.09,354.11,461.19,332.09,414,316.83Z" transform="translate(0 -0.01)"/><ellipse class="cls-1" cx="874.45" cy="491.74" rx="23.11" ry="3.17"/><ellipse class="cls-1" cx="785.92" cy="500.72" rx="23.11" ry="3.17"/><ellipse class="cls-1" cx="681.64" cy="488.57" rx="23.11" ry="3.17"/><ellipse class="cls-1" cx="821.35" cy="526.28" rx="16.43" ry="2.26"/><ellipse class="cls-1" cx="729.47" cy="524.02" rx="16.43" ry="2.26"/><path class="cls-2" d="M785.42,500s32.42-106.26-5.07-148.82c-28-31.84-59.88-28-74.13-24.09a26.31,26.31,0,0,0-17,14.13c-5,10.75-4.08,28.2,31.1,48.57,58.91,34.11,62.58,80.9,62.58,80.9Z" transform="translate(0 -0.01)"/><path class="cls-3" d="M711.29,342.17S806.85,372.05,785.42,500" transform="translate(0 -0.01)"/><path class="cls-3" d="M767.09,352.88s-13.16,8.87-9,22.19" transform="translate(0 -0.01)"/><path class="cls-3" d="M720.88,360.77s8-8.18,17.83-3.67" transform="translate(0 -0.01)"/><path class="cls-3" d="M758.65,401.92s14.12-7.16,17.77,1.81" transform="translate(0 -0.01)"/><path class="cls-3" d="M793.6,416.86S783,416,782.8,421.09" transform="translate(0 -0.01)"/><path class="cls-2" d="M786.73,500.86s-38-77.23-48.39-75.54c-5,.8-7.24,5.68-8.27,10.57a31.05,31.05,0,0,0,2.07,18.8C737.53,467.05,752,490.52,786.73,500.86Z" transform="translate(0 -0.01)"/><path class="cls-3" d="M738.62,440s39.85,57.78,47.55,60.32" transform="translate(0 -0.01)"/><line class="cls-3" x1="734.96" y1="448.99" x2="744.26" y2="448.99"/><line class="cls-3" x1="746.1" y1="470.13" x2="760.68" y2="470.75"/><line class="cls-3" x1="754.97" y1="453.22" x2="753.39" y2="460.81"/><line class="cls-3" x1="770.47" y1="476.33" x2="770.19" y2="483.23"/><path class="cls-2" d="M785.61,500.86s38-77.23,48.39-75.54c5,.8,7.24,5.68,8.27,10.57a31.05,31.05,0,0,1-2.07,18.8C834.81,467.05,820.34,490.52,785.61,500.86Z" transform="translate(0 -0.01)"/><path class="cls-3" d="M833.72,440s-39.85,57.78-47.55,60.32" transform="translate(0 -0.01)"/><line class="cls-3" x1="837.38" y1="448.99" x2="828.08" y2="448.99"/><line class="cls-3" x1="826.24" y1="470.13" x2="811.66" y2="470.75"/><line class="cls-3" x1="817.37" y1="453.22" x2="818.95" y2="460.81"/><line class="cls-3" x1="801.86" y1="476.33" x2="802.15" y2="483.23"/><path class="cls-2" d="M720.42,518.9a6.69,6.69,0,0,1-2.16-3.26,2.92,2.92,0,0,1,1.51-3.33c1.39-.53,2.87.43,4,1.41s2.41,2.07,3.88,1.87a5.9,5.9,0,0,1-1.82-5.53,2.27,2.27,0,0,1,.5-1.13c.77-.82,2.17-.46,3.09.18,2.93,2.07,3.75,6,3.77,9.63a19.1,19.1,0,0,0,0-4,4.06,4.06,0,0,1,1.49-3.51,4.38,4.38,0,0,1,2.27-.54,4.71,4.71,0,0,1,3.69,1.05c1.11,1.2.82,3.21-.15,4.53a14.4,14.4,0,0,1-3.81,3,8.38,8.38,0,0,0-2.73,2.6,2.67,2.67,0,0,0-.2.46h-8.26A22.62,22.62,0,0,1,720.42,518.9Z" transform="translate(0 -0.01)"/><path class="cls-2" d="M865.09,487.79a6.51,6.51,0,0,1-2.16-3.26,2.91,2.91,0,0,1,1.51-3.32c1.39-.53,2.87.43,4,1.4s2.42,2.08,3.89,1.87A5.89,5.89,0,0,1,870.5,479a2.25,2.25,0,0,1,.51-1.12c.77-.82,2.16-.47,3.08.18,2.93,2.06,3.75,6,3.77,9.63a17.83,17.83,0,0,0,0-4,4.06,4.06,0,0,1,1.49-3.51,4.6,4.6,0,0,1,2.27-.53,4.68,4.68,0,0,1,3.69,1c1.12,1.19.83,3.2-.15,4.52a14.11,14.11,0,0,1-3.81,3.06,8.38,8.38,0,0,0-2.73,2.6,2.67,2.67,0,0,0-.2.46h-8.26A23,23,0,0,1,865.09,487.79Z" transform="translate(0 -0.01)"/><path class="cls-2" d="M816.87,518.9a6.69,6.69,0,0,1-2.16-3.26,2.92,2.92,0,0,1,1.51-3.33c1.39-.53,2.87.43,4,1.41s2.41,2.07,3.88,1.87a5.91,5.91,0,0,1-1.83-5.53,2.52,2.52,0,0,1,.51-1.13c.77-.82,2.17-.46,3.09.18,2.93,2.07,3.75,6,3.77,9.63a18.45,18.45,0,0,0,.05-4,4.06,4.06,0,0,1,1.49-3.51,4.38,4.38,0,0,1,2.27-.54,4.71,4.71,0,0,1,3.69,1.05c1.11,1.2.82,3.21-.15,4.53a14.4,14.4,0,0,1-3.81,3,8.38,8.38,0,0,0-2.73,2.6,2.67,2.67,0,0,0-.2.46H822A22.93,22.93,0,0,1,816.87,518.9Z" transform="translate(0 -0.01)"/><path class="cls-2" d="M680.14,456s-3.1,4.05,1.43,10.16,8.25,11.28,6.75,15.09c0,0-6.83-11.35-12.39-11.51S674,462.85,680.14,456Z" transform="translate(0 -0.01)"/><path class="cls-4" d="M680.14,456a5.05,5.05,0,0,0-.64,1.27c-5.42,6.37-8.31,12.32-3.1,12.47,4.86.14,10.69,8.82,12.08,11a1.54,1.54,0,0,1-.16.5s-6.83-11.35-12.39-11.51S674,462.85,680.14,456Z" transform="translate(0 -0.01)"/><path class="cls-5" d="M674.38,461.18c0,1.43.16,2.58.36,2.58s.35-1.15.35-2.58-.2-.75-.39-.75S674.38,459.76,674.38,461.18Z" transform="translate(0 -0.01)"/><path class="cls-5" d="M672.4,462.88c1.25.69,2.35,1.1,2.44.93s-.84-.87-2.09-1.55-.76-.19-.86,0S671.15,462.2,672.4,462.88Z" transform="translate(0 -0.01)"/><path class="cls-2" d="M696.49,456s3.1,4.05-1.43,10.16-8.25,11.28-6.74,15.09c0,0,6.82-11.35,12.38-11.51S702.61,462.85,696.49,456Z" transform="translate(0 -0.01)"/><path class="cls-4" d="M696.49,456a5.05,5.05,0,0,1,.64,1.27c5.42,6.37,8.31,12.32,3.1,12.47-4.86.14-10.69,8.82-12.08,11a4.2,4.2,0,0,0,.17.5s6.82-11.35,12.38-11.51S702.61,462.85,696.49,456Z" transform="translate(0 -0.01)"/><path class="cls-5" d="M702.25,461.18c0,1.43-.16,2.58-.36,2.58s-.35-1.15-.35-2.58.2-.75.39-.75S702.25,459.76,702.25,461.18Z" transform="translate(0 -0.01)"/><path class="cls-5" d="M704.23,462.88c-1.25.69-2.35,1.1-2.44.93s.84-.87,2.09-1.55.76-.19.86,0S705.48,462.2,704.23,462.88Z" transform="translate(0 -0.01)"/><path class="cls-6" d="M701.26,480.74s-8.65-.26-11.26-2.12-13.32-4.08-14-1.1-13,14.82-3.24,14.9,22.72-1.52,25.32-3.11S701.26,480.74,701.26,480.74Z" transform="translate(0 -0.01)"/><path class="cls-7" d="M672.62,491.38c9.77.08,22.71-1.52,25.32-3.11,2-1.2,2.77-5.54,3-7.54h.28s-.54,7-3.15,8.57-15.54,3.19-25.32,3.11c-2.82,0-3.79-1-3.74-2.51C669.44,490.81,670.52,491.37,672.62,491.38Z" transform="translate(0 -0.01)"/><circle class="cls-1" cx="128.99" cy="60.51" r="21.63"/><circle class="cls-1" cx="503.1" cy="26.38" r="21.63" transform="translate(372.86 513.04) rotate(-78.02)"/><circle class="cls-1" cx="846.25" cy="111.82" r="21.63"/><circle class="cls-1" cx="36.25" cy="258.84" r="36.25"/><circle class="cls-1" cx="71" cy="437.84" r="36.25"/><circle class="cls-1" cx="749.92" cy="279.95" r="36.25"/><path class="cls-8" d="M450.16,347.84c-1.28.12-2.58.06-3.85.26a17.4,17.4,0,0,0-6,2.41c-9.1,5.18-17.69,12.3-21.46,22.06a3,3,0,0,0-.28,1.95,3.27,3.27,0,0,0,1.06,1.38l3.54,3.22a3.83,3.83,0,0,0,4.47,1c9.73-2.23,20.07-4.8,26.9-12.08,3.24-3.45,6.23-8.2,11-8.33,2,0,3.87.77,5.84,1s4.34-.61,4.81-2.53a5.37,5.37,0,0,0-.32-2.83l-2.94-9.79c-.8-2.68-8.87-2.82-11.56-2.34C457.27,343.94,454.51,347.44,450.16,347.84Z" transform="translate(0 -0.01)"/><path class="cls-8" d="M484.8,403c-.14,3.35.13,6.74-.42,10.06a29.1,29.1,0,0,1-2.49,7.55,49.29,49.29,0,0,1-6.8,10.71c-2.53,3-5.56,5.82-9.31,7s-8.36.33-10.7-2.83c-1.91-2.57-2-6-1.86-9.21.34-7.89,1.58-15.89,5.12-22.95,1.52-3,3.45-5.86,5-8.89,3.24-6.29,5.09-13.75,10.68-18.09a35.19,35.19,0,0,0,11.1,3.05c1.49.16,5.75.26,6.25,2.17.34,1.29-2.46,4.9-3,6.17A42.09,42.09,0,0,0,484.8,403Z" transform="translate(0 -0.01)"/><path class="cls-9" d="M445.16,258.77c1.2,3.06,2.72,6.06,3,9.32.2,2,0,4,0,6a39,39,0,0,0,1.36,8.1l5.57,22.8c.83,3.41,1.66,6.91,1.23,10.39-.29,2.32-1.13,4.57-1.12,6.9a27.16,27.16,0,0,0,.84,5.23,32.22,32.22,0,0,1-.84,15.9,2.46,2.46,0,0,0-.17,1.23c.14.65.77,1.05,1.34,1.36a57.11,57.11,0,0,0,19.3,6.43,189.05,189.05,0,0,0,12.7-45.35c1.42-9.44,2.11-19,3.93-28.37a2.31,2.31,0,0,1,.65-1.44c.68-.57,1.71-.21,2.51.17a223.91,223.91,0,0,1,29.41,17A36.75,36.75,0,0,0,531.66,264a63.15,63.15,0,0,0-5-13.08,74,74,0,0,0-8.5-14.27c-7.42-9.3-18.3-15.24-29.5-19.27-6.81-2.46-13.82-4.28-20.82-6.14-3.92-1.05-10.49-4.47-14.3-1.81-4,2.77-6.66,9.64-8.3,14A51.63,51.63,0,0,0,442,240.35,47.88,47.88,0,0,0,445.16,258.77Z" transform="translate(0 -0.01)"/><path class="cls-9" d="M525.55,286.26c-2.09,2.28-.33,5.92-.73,9a12.4,12.4,0,0,1-1.47,3.95L513.78,318a34.77,34.77,0,0,0-3.56,9c-1.31,6.78,1.38,14.4-2.06,20.39-1.11,1.93-2.83,3.59-3.29,5.77-.34,1.59,0,3.25-.17,4.86-.23,1.89-1.24,3.59-1.8,5.41a37,37,0,0,0-.93,5.32,31.3,31.3,0,0,1-11.24,19.44,17.91,17.91,0,0,1-12.4,4.22c-4.46-.38-8.89-3.41-9.8-7.79-.31-1.49-.25-3.15-1.18-4.36-1.32-1.73-4.1-1.8-5.37-3.57l4.92-8.1c1.53-2.51,3.09-5.13,3.34-8.06.3-3.59-1.43-7.17-.81-10.72.53-3.05,2.72-5.59,3.38-8.61.82-3.75-.82-7.54-1.71-11.28-2.18-9.21.26-18.81,2.69-28,3.23-12.16,6.54-24.51,13.08-35.26C499.92,273.69,511.92,280.44,525.55,286.26Z" transform="translate(0 -0.01)"/><path class="cls-2" d="M525.67,95.78c.78,2.12.36,4.47.21,6.72-.35,5,.71,10,.47,15.07s-1.8,9.91-2.88,14.84c-3.07,14.07-2.33,28.73-5.11,42.86-3.43,17.5-12.2,33.8-13.93,51.56-.55,5.64-.48,11.68-3.57,16.44a258.15,258.15,0,0,1-51.72-30.38c3.52-26.11,7-52.35,6.53-78.69a33.52,33.52,0,0,1,.66-9.48,29.06,29.06,0,0,1,3.56-7.38C463.76,111.05,468,105,472.27,99c2.72-3.86,5.66-7.91,10-9.72s9.48-1,14.21-.14l17.06,3.12C517.09,92.89,524.15,91.65,525.67,95.78Z" transform="translate(0 -0.01)"/><path class="cls-10" d="M388.74,195.83a53.37,53.37,0,0,0-7.6-6.31c3.55-4.32,2.85-10.57,3.72-16.1A53.3,53.3,0,0,1,388.09,163c.36-.95.87-2,1.86-2.25a3.21,3.21,0,0,1,1.78.28c3,1.06,9.26,1,11.59,2.94,2.81,2.36.24,7.3-.82,10.25C401.75,176.15,390.23,197.33,388.74,195.83Z" transform="translate(0 -0.01)"/><path class="cls-8" d="M397.45,382.58a20.66,20.66,0,0,1,2.89,8c.24,2.84-.8,5.95-3.22,7.45s-5.89,1-8.77.1a45.66,45.66,0,0,1-27.65-25c-.91-2.1-1.7-4.33-3.31-5.95a18.45,18.45,0,0,0-3.95-2.65c-3.93-2.22-7.72-5.14-9.54-9.28s-1-9.67,2.77-12.13a10.23,10.23,0,0,1,7.84-1,30.42,30.42,0,0,1,7.42,3.23c3.88,2.11,8.62,3.93,12,6.74,3,2.47,5.69,5.81,8.25,8.72a122.63,122.63,0,0,1,8.23,10.5C391.23,372.38,398.14,381.61,397.45,382.58Z" transform="translate(0 -0.01)"/><path class="cls-8" d="M324.15,361.59a69.37,69.37,0,0,1-2.65,14.85c-.81,2.72-1.88,5.55-4.13,7.28a15.19,15.19,0,0,1-6.31,2.31,6.11,6.11,0,0,1-2.41.15c-1.38-.29-2.36-1.48-3.21-2.61-3.34-4.42-6.59-9.09-8-14.45-2-7.77,0-16.1,3.47-23.36a23.92,23.92,0,0,1,5.35-7.79,20.48,20.48,0,0,1,9.82-4.41c3.69-.74,8.22-2.32,8.49,2.17A210.51,210.51,0,0,1,324.15,361.59Z" transform="translate(0 -0.01)"/><path class="cls-9" d="M379.48,173.63c6.9,3.57,14.56,8.11,16,15.74.89,4.66-.82,9.43-.54,14.17.25,4.17,2,8.2,1.78,12.36a57.63,57.63,0,0,1-1,5.85c-.59,3.69-.24,7.45-.39,11.18-.33,8.4-3.14,16.48-4.5,24.77a72.58,72.58,0,0,0-.67,17.91c.33,3.86,1,7.7,1,11.58a50.73,50.73,0,0,1-.69,8.34,83.2,83.2,0,0,1-8,24.87c-4.81,9.47-4.13,21.69-3.62,32.3a8,8,0,0,1-.54,4.32c-1.26,2.29-4.4,2.62-7,2.4a38,38,0,0,1-25-12.66,6.39,6.39,0,0,1-1.82-3.37c-.22-2.14,1.5-3.9,2.74-5.67,4.22-6,3.15-14.13,3.65-21.5a47.22,47.22,0,0,1,3.79-15.55c1.24-2.85,2.79-5.66,3.07-8.76.26-2.89-.62-5.75-1.49-8.51l-3-9.52c-4.65-14.79-9.33-29.67-16.37-43.48a21.77,21.77,0,0,0-9.25,13c-2.62,9.42,1.11,19.94-2.46,29a27.25,27.25,0,0,0-1.47,3.89,15.69,15.69,0,0,0-.24,3.49A284.36,284.36,0,0,0,325.24,309a9,9,0,0,0,1.2,4.17c.59.85,1.45,1.48,2.08,2.29,1.75,2.27,1.42,5.45,1,8.28l-2,13.38a3.67,3.67,0,0,1-.65,1.89,3.51,3.51,0,0,1-1.7.92,47.38,47.38,0,0,1-19.66,1.8c-1.95-.23-3.72-1.54-5.35-2.64-.17-2,2.32-3.33,2.41-5.32a4.57,4.57,0,0,0-1.53-3.06c-3.72-4.2-8.16-8.66-8.12-14.27,0-1.47.35-2.94.3-4.41-.13-3.77-2.73-7-3.64-10.63-1.12-4.49.37-9.15.94-13.74.78-6.18-.14-12.44-1-18.61l-3.35-22.64A61.17,61.17,0,0,0,284.09,236a81.27,81.27,0,0,0-4.43-9.74c-3.2-6.5-5.83-13.26-8.45-20a18.21,18.21,0,0,1-1.55-5.79c-.15-3.43,1.62-6.67,3.82-9.31a29,29,0,0,1,16-9.7,7,7,0,0,1,3.21-.13,8.6,8.6,0,0,1,2.49,1.31,59.82,59.82,0,0,0,52.87,6.27c1,.76,2.85.43,4-.11,3.21-1.47,5.83-3.92,8.65-6C366,178.8,373,175,379.48,173.63Z" transform="translate(0 -0.01)"/><path class="cls-9" d="M172.21,430.44a13.66,13.66,0,0,0,2.36,4.21c3.62,4.72,8.67,8.49,11,14,.49,1.18.85,2.42,1.3,3.62a23.81,23.81,0,0,0,6.5,9.42,39.8,39.8,0,0,0,7.17,4.75c4.42,2.41,9.2,4.59,14.22,4.46a15.18,15.18,0,0,0,3-.36,16.23,16.23,0,0,0,4.47-1.64c3.23-1.78,6-5.26,5.36-8.89a8.36,8.36,0,0,0-.65-2,20.71,20.71,0,0,0-1.83-2.89c-1.69-2.34-3.43-4.74-5.9-6.24-2.78-1.7-6.28-2.12-8.78-4.22a13.53,13.53,0,0,1-2.53-3.06,38.57,38.57,0,0,1-5-11.33c-.76-3-1.27-6.29-3.46-8.49s-5.2-2.7-8.12-3.2a14.39,14.39,0,0,0-3-.29c-1.43,0-2.91.46-4.25-.21s-1.79-1.62-3.41-1.49a7,7,0,0,0-3.51,1.53C173.35,420.93,170.83,425.93,172.21,430.44Z" transform="translate(0 -0.01)"/><path class="cls-11" d="M207.74,435c.65,3.39,1.65,7,4.27,9.21,1.67,1.44,4,2.34,4.83,4.37s-.24,4.58-1.62,6.44a23.72,23.72,0,0,1-6.44,5.91c-2.12,1.31-4.65,2.31-7.08,1.73-2-.47-3.58-1.91-5.07-3.3-3.42-3.17-6.92-6.46-8.84-10.71-2-4.48-2.1-9.67-4.28-14.08-1.27-2.57-3.23-4.82-4-7.58a4.65,4.65,0,0,1,0-3.08,4.33,4.33,0,0,1,3.92-2.33,13.49,13.49,0,0,1,4.69,1A103.53,103.53,0,0,0,202,426.44c1.87.35,3,.34,4,2.15A21.65,21.65,0,0,1,207.74,435Z" transform="translate(0 -0.01)"/><path class="cls-11" d="M219.34,463.65a11,11,0,0,0-1.55,3.72,8.3,8.3,0,0,0-.11,3.14,16.23,16.23,0,0,0,4.47-1.64c3.23-1.78,6-5.26,5.36-8.89a8.36,8.36,0,0,0-.65-2,2.79,2.79,0,0,0-2.66.83A22.09,22.09,0,0,0,219.34,463.65Z" transform="translate(0 -0.01)"/><path class="cls-9" d="M183.5,387.67a4.92,4.92,0,0,0-.37,3c.46,2,2.51,3.15,4.36,4.06l17.59,8.6a36.7,36.7,0,0,1,3.56,1.89c3,1.84,5.36,4.44,7.92,6.82s5.41,4.61,8.8,5.45a14.87,14.87,0,0,0,10-1.31,20.67,20.67,0,0,0,4.58-3.11,28.9,28.9,0,0,0,3.3-3.43,7.37,7.37,0,0,0,1.79-3.23c.33-1.83-.58-3.63-1.64-5.14a23.83,23.83,0,0,0-2-2.48c-6.67-7.37-17.6-11.19-27-12.69-3.74-.6-7.29-2-10.89-3.14s-7.41-2-11.15-1.47S184.93,384.17,183.5,387.67Z" transform="translate(0 -0.01)"/><path class="cls-4" d="M183.5,387.67a4.92,4.92,0,0,0-.37,3c.46,2,2.51,3.15,4.36,4.06l17.59,8.6a36.7,36.7,0,0,1,3.56,1.89c3,1.84,5.36,4.44,7.92,6.82s5.41,4.61,8.8,5.45a14.87,14.87,0,0,0,10-1.31,20.67,20.67,0,0,0,4.58-3.11,28.9,28.9,0,0,0,3.3-3.43,7.37,7.37,0,0,0,1.79-3.23c.33-1.83-.58-3.63-1.64-5.14a23.83,23.83,0,0,0-2-2.48c-6.67-7.37-17.6-11.19-27-12.69-3.74-.6-7.29-2-10.89-3.14s-7.41-2-11.15-1.47S184.93,384.17,183.5,387.67Z" transform="translate(0 -0.01)"/><path class="cls-11" d="M227.52,393.16a20,20,0,0,1,3.3,5.09,5.7,5.7,0,0,1,.75,4.07,5.92,5.92,0,0,1-1.83,2.4L228,406.34a6.93,6.93,0,0,1-1.82,1.36,7.31,7.31,0,0,1-3,.45c-2.35,0-4.88,0-6.79-1.41-2.61-1.88-3.08-5.77-1.89-8.76s3.68-5.25,6.19-7.27C222.72,389.06,226.09,391.65,227.52,393.16Z" transform="translate(0 -0.01)"/><path class="cls-11" d="M238.2,403.5a8.9,8.9,0,0,0,.45,4.95c.44,1.5.87,3,1.3,4.53V413a28.9,28.9,0,0,0,3.3-3.43,7.37,7.37,0,0,0,1.79-3.23c.33-1.83-.58-3.63-1.64-5.14a23.83,23.83,0,0,0-2-2.48c-.47.61-.88,1.21-1.22,1.6A8.68,8.68,0,0,0,238.2,403.5Z" transform="translate(0 -0.01)"/><path class="cls-9" d="M192.25,329c-2.07,8.7-1.19,17.8-.09,26.68.84,6.76,1.78,13.76-.22,20.27-.74,2.43-1.91,4.9-1.46,7.41.85,4.73,6.55,6.55,11.27,7.44a11.06,11.06,0,0,0,4.17.25,9.87,9.87,0,0,0,3.8-2,41.57,41.57,0,0,0,14.63-19.45c1.79-5.22,2.36-10.77,2.91-16.26.92-9.24,1.85-18.59.5-27.77-.4-2.7-1-5.37-1.25-8.09a58.86,58.86,0,0,1,.78-14.15,228.06,228.06,0,0,1,7.8-34.14,46,46,0,0,1-27.68-5c1.64.88-.24,14.91-.44,16.88a115.48,115.48,0,0,1-3.17,17.4C201,309.11,194.78,318.37,192.25,329Z" transform="translate(0 -0.01)"/><path class="cls-4" d="M192.25,329c-2.07,8.7-1.19,17.8-.09,26.68.84,6.76,1.78,13.76-.22,20.27-.74,2.43-1.91,4.9-1.46,7.41.85,4.73,6.55,6.55,11.27,7.44a11.06,11.06,0,0,0,4.17.25,9.87,9.87,0,0,0,3.8-2,41.57,41.57,0,0,0,14.63-19.45c1.79-5.22,2.36-10.77,2.91-16.26.92-9.24,1.85-18.59.5-27.77-.4-2.7-1-5.37-1.25-8.09a58.86,58.86,0,0,1,.78-14.15,228.06,228.06,0,0,1,7.8-34.14,46,46,0,0,1-27.68-5c1.64.88-.24,14.91-.44,16.88a115.48,115.48,0,0,1-3.17,17.4C201,309.11,194.78,318.37,192.25,329Z" transform="translate(0 -0.01)"/><path class="cls-9" d="M244.17,278c4,11.59,3.12,24.25,1.39,36.39s-4.28,24.28-3.53,36.51c.29,4.8,1.07,9.73-.33,14.32a31.57,31.57,0,0,1-3.07,6.39l-31.91,55.18a9.91,9.91,0,0,1-8,5c-3.41.24-6.76-.88-9.94-2.13a17.89,17.89,0,0,1-5.79-3.21,6.85,6.85,0,0,1-2.44-5.86c1.43-9.58,3.58-19.39,5.17-29a50.2,50.2,0,0,1,6.94-18.37c2.47-4,5.51-7.59,7.64-11.75,6.12-11.92,4-26.46-.72-39s-11.75-24.18-15.5-37a42.42,42.42,0,0,1-1.89-11,29.33,29.33,0,0,1,8.36-20.86,7.35,7.35,0,0,1,2.89-2,8.08,8.08,0,0,1,3.94.07C215.15,255.12,238.3,260.87,244.17,278Z" transform="translate(0 -0.01)"/><path class="cls-11" d="M531,105c.58,4.38-1,8.81-3.25,12.6-8.51,14.2-28.13,20.48-43.3,13.87-6.25-2.73-11.54-7.23-16.72-11.67-1.74-1.5-3.55-3.07-4.43-5.19-1.55-3.75.32-8.22,3.37-10.9s7-4,10.93-5.19C490.57,94.44,527.91,81.7,531,105Z" transform="translate(0 -0.01)"/><path class="cls-9" d="M523.41,91.06c11.81,9.5,29,18.55,42.38,25.59,4.55,2.4,9.6,5.1,11.24,10,.88,2.62.59,5.47.3,8.23-.56,5.31-1.14,10.7-3.19,15.63-2.41,5.77-6.67,10.53-10.09,15.77-6,9.18-9.52,20-16.93,28.11,5,16.61,10.47,33.2,12.25,50.44a2.28,2.28,0,0,1-.15,1.41,2.42,2.42,0,0,1-.78.71L546,255.11a14,14,0,0,0-3.59,3c-2.2,2.86-1.91,6.88-3.27,10.21a13.31,13.31,0,0,1-7.7,7,23.79,23.79,0,0,1-10.59,1.12A24.7,24.7,0,0,1,508.21,272c-3.17-2.4-5.43-5.77-7.61-9.09a34.92,34.92,0,0,1-4-7.29c-1.33-3.68-1.41-7.69-1.36-11.61a122.83,122.83,0,0,1,2.13-22.23c.58-2.91,1.3-5.78,1.76-8.71.92-5.9.74-11.92,1.42-17.85A120.39,120.39,0,0,1,505,175.54a102.19,102.19,0,0,0,2.6-12.1c1.17-7.18,3.5-14.11,5.83-21l4-11.81c.85-2.55,1.71-5.09,2.72-7.58,1.88-4.65,4.3-9.18,4.94-14.14.71-5.41-5.13-11.83-3.16-16.91C522.09,91.44,523,90.7,523.41,91.06Z" transform="translate(0 -0.01)"/><path class="cls-9" d="M573.83,123.86c2.77,1.25,4.3,4.23,5.29,7.11a40.3,40.3,0,0,1,1.56,20.2,36,36,0,0,0-.8,5.16,34.56,34.56,0,0,0,.59,6c1,7.65,0,15.42.33,23.14.34,8.68,2.23,17.85-1.41,25.74-2.42,5.24-7,9.14-11.52,12.68a230.52,230.52,0,0,1-55.17,31.84c3.41-4.1,3.47-10.27,1.2-15.1s-6.49-8.46-11-11.28a71,71,0,0,0,16.55-5.91c10.48-5.32,19.46-13.11,28.33-20.82a8.59,8.59,0,0,0,2.94-3.72c.9-3-1.58-5.85-3.3-8.48-5.21-8-4-18.45-1.82-27.71,2.43-10.15,6-20.26,12.51-28.42C562.17,129.19,567.47,125.27,573.83,123.86Z" transform="translate(0 -0.01)"/><path class="cls-11" d="M511.82,256a13.65,13.65,0,0,1-3.44,3.78c-3,2-7.12,1.24-10.47-.18a30.55,30.55,0,0,1-8.5-5.41,13.28,13.28,0,0,0-3.77-2.8c-2.62-1-6.28-.25-7.75-2.66a1.37,1.37,0,0,1-.24-.86c.09-.87,1.23-1.11,2.11-1.16a26.15,26.15,0,0,0,11.57-3.57,11,11,0,0,1-2.84-3,2.36,2.36,0,0,1-.48-1.42,2.52,2.52,0,0,1,.87-1.42,22.26,22.26,0,0,1,24.48-4.08,4.86,4.86,0,0,1,2,1.5,5.48,5.48,0,0,1,.73,2c.65,2.8,3,7,2.15,9.83C517.3,249.78,513.75,253.23,511.82,256Z" transform="translate(0 -0.01)"/><path class="cls-9" d="M443.63,243.37c12.44-14.37,18-33.28,23.16-51.57l3.69-13,8.9-31.31c1.31-4.62,2.62-9.24,3.49-14,1.49-8.13,1.63-16.44,1.54-24.7a26.79,26.79,0,0,0-2.31-9.92c-.87-2.16-1.29-4.46-2-6.69a33.13,33.13,0,0,0-4-8.79,9.16,9.16,0,0,0-1.81-2.16,10.46,10.46,0,0,0-4.09-1.66,35.68,35.68,0,0,0-9.79-1.49c-3.32.12-6.74,1.27-8.88,3.79-1.63,1.93-2.38,4.43-3.67,6.6a26.45,26.45,0,0,0-1.63,2.77,14.1,14.1,0,0,0-.9,4.54q-.78,9.45-1.33,18.92c-.17,2.87-.32,5.76-.21,8.64.09,2.24.33,4.47.57,6.7l2.37,21.84c.55,5.13.16,9.93.62,15.07,1.12,12.41-1.55,24.82-4.29,37-1.31,5.79-2.66,11.66-5.46,16.9-2.47,4.64-6.17,9.35-5.19,14.52.34,1.8,1.25,3.48,1.39,5.3a10.5,10.5,0,0,0,.33,3.35,4,4,0,0,0,4.27,2A9.92,9.92,0,0,0,443.63,243.37Z" transform="translate(0 -0.01)"/><path class="cls-11" d="M445.15,185.86c.38,2.87.09,5.78.23,8.67a57.86,57.86,0,0,0,2,11c1,4,2.28,8.48,5.81,10.7a17.92,17.92,0,0,1,2.53,1.59,2.46,2.46,0,0,1,.82,2.68l-2.75-.46a2.79,2.79,0,1,1-3.39,4.43A2.29,2.29,0,0,1,450,224a6.58,6.58,0,0,1-.25,2.68,2.18,2.18,0,0,1-2,1.5,3.24,3.24,0,0,1-1.43-.6l-7.18-4.45a13.29,13.29,0,0,1-5.17-5l-3.14-4.73a11.34,11.34,0,0,1-1.63-3c-1.17-4,2.1-8.44.4-12.21a16.17,16.17,0,0,0-1.79-2.62c-3.63-5-3.4-11.8-3-18,.13-2.09.51-4.57,2.4-5.48,1.5-.73,3.3-.08,4.69.83s2.62,2.11,4.2,2.65c1,.34,2.1.38,3.1.74,1.4.49,2.7,2.4,3.64,3.53A11.67,11.67,0,0,1,445.15,185.86Z" transform="translate(0 -0.01)"/><path class="cls-10" d="M357.52,96a17.78,17.78,0,0,1-3.52,5.26,6.82,6.82,0,0,1-5.8,2c-2.22-.44-3.85-2.27-5.32-4-3.84-4.51-7.73-9.08-10.31-14.42-3.94-8.13-4.57-17.41-5.14-26.42-.14-2.32-.26-4.78.85-6.81,1.41-2.59,4.4-3.81,7.16-4.84l15.25-5.7a6,6,0,0,1,3-.55c2.39.4,3.27,3.28,3.92,5.61a35,35,0,0,0,5.7,11.6c3.42,4.56,11.09,10.7,6.71,16.39C364.73,80.93,361.37,88.29,357.52,96Z" transform="translate(0 -0.01)"/><path class="cls-12" d="M377,70c6.68,6.28,8.94,16.06,8.62,25.21s-2.86,18.07-4.31,27.11-1.74,18.69,2.19,27c1.35,2.85,3.19,5.49,4.13,8.5a26.49,26.49,0,0,1,.79,9.13,26.1,26.1,0,0,1-1.82,9.44c-2.13,4.72-6.51,8-10.7,11-8.55,6.18-17.27,12.46-27.31,15.69-6.8,2.19-14,2.91-21.12,3.3a67.24,67.24,0,0,1-14.46-.41,39.28,39.28,0,0,1-22-11.62,12.41,12.41,0,0,1-2.49-3.43,14.18,14.18,0,0,1-.87-5.2q-.36-9.85.12-19.7a86.63,86.63,0,0,1,2.57-18.55c1.91-7,5.22-13.56,7.73-20.38,8.74-23.71,7.86-50.69,20-72.83,2.62-4.78,7-9.81,12.4-9a4.13,4.13,0,0,1,2.74,1.26,5.76,5.76,0,0,1,1,3.08c1.29,10.76,3.12,21.8,8.19,31.51,2,3.81,5,9.61,9.61,10.63s7.33-3.38,9.8-6.5A79.78,79.78,0,0,1,377,70Z" transform="translate(0 -0.01)"/><path class="cls-9" d="M409,53.78a20.35,20.35,0,0,1,3.79,2.66c3,2.84,4.1,7.19,4.08,11.31s-1,8.18-1.6,12.26c-1.61,11-.24,22.26.4,33.4a16,16,0,0,1-.32,5.38c-.49,1.68-1.5,3.16-2.15,4.79-1.91,4.82-.47,10.32-1.59,15.38-1.2,5.39-5.31,10.29-4.54,15.76.31,2.14,1.34,4.11,1.78,6.23s.06,4.68-1.77,5.82-4.49.31-6.67.94a19.92,19.92,0,0,0-2.58,1.16c-3.37,1.52-7.39,1-10.71-.66a32.67,32.67,0,0,1-8.65-6.86c-3.81-3.9-7.5-8.17-9.17-13.36-2.44-7.52-.27-15.71,2.38-23.17s5.81-15,5.34-22.93c-.26-4.44-1.66-8.71-2.5-13.07a83.72,83.72,0,0,1-1.11-18.3c.13-4.48.43-9.1,2.36-13.15a18.12,18.12,0,0,1,14.32-9.8C397.09,46.81,403.09,50.38,409,53.78Z" transform="translate(0 -0.01)"/><path class="cls-4" d="M390.09,150.44a30.35,30.35,0,0,0,1.7,9.39c1.79-4.08,2-8.66,2.24-13.1,1-15.29,4.39-29.71,8-44.52-2.63,2-4.11,7-5.37,10A88.27,88.27,0,0,0,390.09,150.44Z" transform="translate(0 -0.01)"/><path class="cls-9" d="M322.68,43.9c-4.82,1.27-9,4.13-13.67,6-4.85,2-10.07,2.85-15.16,4.08-11.78,2.86-23.61,8.17-30.72,18-5.24,7.23-7.41,16.16-11,24.35-3,6.87-7,13.31-9.21,20.46-2.89,9.33-2.56,19.33-1.85,29.07.58,8,1.46,16.09,5.09,23.18,1.9,3.72,4.52,7.05,6.42,10.77,2.28,4.47,3.48,9.4,5.38,14s4.69,9.2,9.1,11.6l7.3-4.27c10.89-6.37,21.78-12.75,32.33-19.67,9.2-6,18.48-12.89,23.38-22.75,4.34-8.71,4.77-18.89,3.65-28.56s-3.68-19.13-5-28.77a115.86,115.86,0,0,1,.75-36.51c1-5.44,3.66-11.06,4.21-16.48C334.29,42.61,326.85,42.8,322.68,43.9Z" transform="translate(0 -0.01)"/><path class="cls-11" d="M277.55,202.87c5.59,5.29,13.63,6.83,20.62,10a44.33,44.33,0,0,1,13.77,10c2.15,2.36,4.23,5.57,3.15,8.57-.91,2.58-3.7,3.9-6.26,4.86-3.18,1.2-6.73,2.26-9.9,1-1.86-.71-3.36-2.13-5.07-3.14-4.19-2.49-9.47-2.5-13.77-4.8C274,226.17,271,219,265.31,215.19c-3.12-2.1-7.43-3.82-7.75-7.57a9.17,9.17,0,0,1,.84-3.93c1.15-3.06,3.11-13.57,7.49-13.29C270.66,190.71,274,200.34,277.55,202.87Z" transform="translate(0 -0.01)"/><path class="cls-11" d="M248.26,156c1.83,6.58,6.08,12.19,10.49,17.41,3.17,3.75,6.65,7.83,6.76,12.74.1,4.64-3,8.91-7,11.28s-8.71,3.13-13.34,3.43a33.47,33.47,0,0,1-11.06-.77c-9.14-2.48-15.48-10.45-22.67-16.61-4.27-3.65-9.07-6.83-12.34-11.4s-4.65-11.13-1.43-15.74a22.94,22.94,0,0,1,4-4,66.86,66.86,0,0,0,13.79-16.55c1.48-2.51,2.9-5.23,5.39-6.74,3.57-2.17,8.15-1.18,12.19-.12,4.39,1.15,16.76,3.4,17.62,9,.35,2.3-2.5,5.88-2.93,8.35A22,22,0,0,0,248.26,156Z" transform="translate(0 -0.01)"/><path class="cls-13" d="M270.87,168.54a42,42,0,0,1,3.22,7.45c3.05,10.6-2.4,21.52-5,32.24-3.32,13.73-1.91,28.09-2.07,42.22-.07,6.46-.76,13.57-5.41,18.05-1.2,1.14-2.64,2.1-3.45,3.54a15,15,0,0,0-1.11,3.31A17,17,0,0,1,235.94,287a16.78,16.78,0,0,1-3.61-1.5c-3.79-2.11-7.08-5.77-11.42-5.88a34.93,34.93,0,0,0-4.07.45c-4.32.43-8.55-1.17-12.6-2.74a8.33,8.33,0,0,1-2.66-1.42c-.73-.67-1.2-1.57-1.87-2.29-2.47-2.66-6.69-2.2-10.25-2.94a14.35,14.35,0,0,1-10.87-10.87c-.72-3.44-.11-7,.49-10.47l2.68-15.46a143.68,143.68,0,0,0,2.33-17.17,71.91,71.91,0,0,0-1.66-19.41c-1.18-5.2-2.94-10.29-3.58-15.59a38,38,0,0,1,7-26.81c1.39-1.91,3.21-3.82,5.57-4,1.91-.17,3.7.85,5.36,1.83q21.63,12.8,43.56,25.07c4,2.25,8.09,4.51,12.55,5.62,1.34.34,3.26.2,3.45-1.16a2.54,2.54,0,0,0-.39-1.47c-2.5-4.81-6.12-8.94-9-13.52s-5.1-10-4.25-15.32c1.16-7.36,8-12.23,13.59-6.46C262.56,152.07,266.76,160.49,270.87,168.54Z" transform="translate(0 -0.01)"/><path class="cls-11" d="M226.09,261.87c11.73.75,23.72,1.55,34.58,6.05,3.49,1.44,7.19,3.3,10.86,2.41a14.58,14.58,0,0,0,5-2.68,115.45,115.45,0,0,0,12.78-10.9c-.4-2.19-3.37-2.49-5.59-2.47a33.44,33.44,0,0,1-15.56-3.74,26.43,26.43,0,0,0-5-2.33c-4.75-1.31-9.59,1.19-14.36,2.41-7.06,1.8-14.5.75-21.71-.31l-19.46-2.87c-1.81-.26-3.85-.47-5.29.65a6.48,6.48,0,0,0-1.89,3.39c-2.38,8-1.24,8.67,6.68,9.17Z" transform="translate(0 -0.01)"/><circle class="cls-4" cx="491.81" cy="91.02" r="32"/><circle class="cls-11" cx="491.58" cy="89.64" r="32" transform="translate(324.36 560.51) rotate(-80.78)"/><path class="cls-9" d="M518.59,49c2.56,1.58,5.24,3.28,6.64,5.94a29.68,29.68,0,0,1,1.71,5.6c1.75,6,6.41,11.21,6.69,17.46.31,6.85-4.83,12.8-10.65,16.39a7.88,7.88,0,0,1-4.58,1.54c-1.69-.11-3.15-1.17-4.7-1.85-6.57-2.92-13.92.78-20.88,2.48A37.46,37.46,0,0,1,471,95.29c-3.75-1.4-7.39-3.5-9.74-6.75s-3.19-7.8-1.19-11.29c1-1.78,2.66-3.39,2.55-5.42-.06-1.22-.78-2.32-1-3.52-.32-1.91.68-3.77,1.7-5.4a78.28,78.28,0,0,1,17.3-19.57c2-1.64,4.31-3.24,6.93-3.36,5.26-.23,9.78,3.69,15.19,3.71C508.9,43.71,513.31,45.75,518.59,49Z" transform="translate(0 -0.01)"/><circle class="cls-4" cx="373.78" cy="49.87" r="33"/><circle class="cls-10" cx="374.36" cy="49.06" r="33"/><path class="cls-9" d="M392,67.71c4.66,2.61,10.41,2.34,15.61,1.15a20.84,20.84,0,0,0,8.2-3.46,9.91,9.91,0,0,0,4.13-7.6c0-3.35-2.2-6.37-2.47-9.72-.33-4.22,2.42-8.12,2.71-12.36s-1.8-8.06-3.84-11.7c-3.51-6.25-7.16-12.58-12.5-17.36S391.09-1.17,384.09.44c-3.44.79-6.63,2.64-10.14,3-3.12.29-6.2-.65-9.31-1s-6.6-.15-8.83,2c-1.22,1.2-2,2.89-3.43,3.77a20,20,0,0,1-3,1.11c-3.61,1.45-5.26,5.52-6.54,9.18L334.26,43c2.87,2,6.33,2.91,9.47,4.45s6.19,4,6.83,7.44c.49,2.61-.44,5.61,1.08,7.79,1.39,2,4.22,2.34,6.62,2s4.81-1.17,7.21-.8c6,.91,8.23,4.59,13.78,0S386.83,64.81,392,67.71Z" transform="translate(0 -0.01)"/><circle class="cls-4" cx="234.12" cy="123.48" r="30"/><circle class="cls-11" cx="235.28" cy="121.85" r="30"/><path class="cls-9" d="M258.25,92.53a79.12,79.12,0,0,0-23.73-12.48c-5.48-1.78-11.44-3-17-1.36-7.54,2.15-17.63,5.36-22.3,11.67-2.3,3.1-4.63,6.29-5.74,10-2.22,7.46.94,15.41.73,23.19-.25,9.07-5.06,17.35-10.31,24.75s-6.31,18-9.41,26.54c-1.06,2.93-1.4,7,1.33,8.47,2.4,1.33,5.3-.33,7.52-1.93l13.35-9.65a10.24,10.24,0,0,1,3.52-1.88c2.75-.64,5.44,1.08,7.74,2.71l28,19.8a8.59,8.59,0,0,0,.13-7.28c2.63.81,4.54,3,6.85,4.56s5.82,2.07,7.5-.11.41-5.11-1.46-6.87-4.33-2.81-6.16-4.62c-3.63-3.61-4-9.31-6.29-13.87-1.64-3.2-4.29-5.88-5.45-9.29-1.89-5.57.58-11.57,3-16.93,2.89-6.36,6.16-13.15,12.31-16.47,2.07-1.12,4.36-1.78,6.48-2.8,5.28-2.53,11.87-8.5,14.45-13.85C265.57,100.08,262.09,95.49,258.25,92.53Z" transform="translate(0 -0.01)"/><path class="cls-4" d="M212.84,191.67c2.87,1.83,6.11,3,8.93,4.91s5.29,4.81,5.37,8.21c.08,3.25-2,6.1-4,8.68l-24.36,32,12.42,3.29c-2,2.76-2.51,6.28-3.55,9.52s-3,6.61-6.32,7.46c-3,.77-6.14-.81-9.24-.63-2.29.14-4.45,1.22-6.74,1.31-2.95.11-5.69-1.44-8.15-3.08-5.48-3.67-10.92-8.93-10.88-15.53a23.63,23.63,0,0,1,1.33-6.54c3.59-11.71,7.31-23.7,14.75-33.44,4-5.2,8.89-9.59,13.78-14a12.89,12.89,0,0,1,3.86-2.67c3.2-1.2,6.69.28,10,1.24s7.48,1.1,9.39-1.73" transform="translate(0 -0.01)"/><path class="cls-13" d="M211.79,189.7c2.87,1.82,6.11,3,8.93,4.91s5.29,4.81,5.38,8.2-2,6.11-4,8.69l-24.37,31.94,12.42,3.29c-2,2.76-2.51,6.27-3.55,9.52s-3,6.61-6.32,7.46c-3,.77-6.14-.81-9.24-.63-2.29.13-4.45,1.22-6.74,1.3-3,.11-5.69-1.44-8.15-3.08-5.48-3.66-10.92-8.93-10.87-15.52a22.84,22.84,0,0,1,1.32-6.54c3.59-11.72,7.31-23.71,14.75-33.44,4-5.21,8.9-9.6,13.78-14a13.21,13.21,0,0,1,3.86-2.67c3.2-1.2,6.69.28,10,1.25s7.48,1.1,9.39-1.73" transform="translate(0 -0.01)"/><g class="cls-14"><path d="M462.32,81.91c2.35,3.25,6,5.36,9.74,6.75a37.3,37.3,0,0,0,21.8,1.28c7-1.7,14.31-5.4,20.88-2.48,1.55.69,3,1.74,4.69,1.86A8,8,0,0,0,524,87.77c4.05-2.5,7.77-6.14,9.55-10.43a2.57,2.57,0,0,0,.06.67c.31,6.85-4.83,12.8-10.65,16.39a7.88,7.88,0,0,1-4.58,1.54c-1.69-.11-3.15-1.17-4.7-1.85-6.57-2.92-13.92.78-20.88,2.48A37.46,37.46,0,0,1,471,95.29c-3.75-1.4-7.39-3.5-9.74-6.75s-3.19-7.8-1.19-11.29l.15-.25A12.1,12.1,0,0,0,462.32,81.91Z" transform="translate(0 -0.01)"/><path d="M463.65,65.2c.08,1.54-.85,2.83-1.74,4.14a6.75,6.75,0,0,1-.29-1c-.3-1.79.56-3.53,1.51-5.1A6.61,6.61,0,0,1,463.65,65.2Z" transform="translate(0 -0.01)"/></g><path class="cls-4" d="M345.18,15.19,336.6,39.77c2.87,2,6.33,2.92,9.47,4.45s6.19,4,6.83,7.44c.49,2.61-.44,5.61,1.08,7.8,1.39,2,4.22,2.33,6.62,2s4.81-1.17,7.21-.8c6,.91,8.23,4.59,13.78.05s7.56.85,12.72,3.75c4.66,2.62,10.41,2.35,15.61,1.15a21,21,0,0,0,8.2-3.45c.35-.29.68-.59,1-.91a11.16,11.16,0,0,1-3.36,4.16,20.84,20.84,0,0,1-8.2,3.46c-5.2,1.19-11,1.46-15.61-1.15-5.16-2.9-7.28-8.19-12.72-3.75s-7.8.86-13.78,0c-2.4-.37-4.8.46-7.21.8s-5.23,0-6.62-2c-1.52-2.18-.59-5.18-1.08-7.79-.64-3.44-3.69-5.91-6.83-7.44s-6.6-2.46-9.47-4.45l8.62-24.65c1-2.71,2.1-5.64,4.1-7.57A33.82,33.82,0,0,0,345.18,15.19Z" transform="translate(0 -0.01)"/><g class="cls-14"><path d="M234.31,186.16c2.21,1,5,1.15,6.4-.72,1.57-2,.41-5.1-1.46-6.87s-4.33-2.81-6.16-4.62c-3.63-3.6-4-9.3-6.29-13.86-1.64-3.21-4.29-5.89-5.45-9.3-1.89-5.56.58-11.57,3-16.92,2.89-6.36,6.16-13.15,12.31-16.47,2.07-1.12,4.36-1.78,6.48-2.8,5.28-2.53,11.87-8.51,14.45-13.86,2.17-4.51-.89-8.89-4.53-11.86,1.77,1.15,3.5,2.36,5.18,3.65,3.85,3,7.32,7.55,5,12.28-2.58,5.35-9.17,11.32-14.45,13.85-2.12,1-4.41,1.68-6.48,2.8-6.15,3.32-9.42,10.11-12.31,16.47-2.43,5.36-4.9,11.36-3,16.93,1.16,3.41,3.81,6.09,5.45,9.29,2.32,4.56,2.66,10.26,6.29,13.87,1.83,1.81,4.29,2.85,6.16,4.62s3,4.83,1.46,6.87-5.2,1.62-7.5.11C237.31,188.57,235.9,187.19,234.31,186.16Z" transform="translate(0 -0.01)"/><path d="M173.66,177.29,187,167.65a10.09,10.09,0,0,1,3.52-1.89c2.75-.63,5.44,1.09,7.74,2.72l28,19.8a8.61,8.61,0,0,0,.13-7.29c2.57.8,4.44,2.94,6.67,4.44a7,7,0,0,0-1-.37,8.59,8.59,0,0,1-.13,7.28l-28-19.8c-2.3-1.63-5-3.35-7.74-2.71a10.24,10.24,0,0,0-3.52,1.88l-13.35,9.65c-2.22,1.6-5.12,3.26-7.52,1.93a4.38,4.38,0,0,1-2.09-3.86A14.34,14.34,0,0,0,173.66,177.29Z" transform="translate(0 -0.01)"/></g><path class="cls-12" d="M507.19,242.6s-57.3,4.59-68.7-3.53L490.91,231Z" transform="translate(0 -0.01)"/><path class="cls-4" d="M507.19,242.6s-57.3,4.59-68.7-3.53L490.91,231Z" transform="translate(0 -0.01)"/><path class="cls-12" d="M507.19,242.6l-16.05-10.16s-47.88,13.76-61,8.08l13.35-18.73L490.93,231Z" transform="translate(0 -0.01)"/><path class="cls-9" d="M436,107.88a28.21,28.21,0,0,0-4.21,7.39c-.46,1.41-.69,2.88-1.08,4.31a33.27,33.27,0,0,1-5,9.91c-4.93,7.17-11.09,14.09-12.33,22.7-.6,4.25.06,8.57.9,12.78a34.3,34.3,0,0,0,2.36,8.07c1.27,2.74,3.16,5.15,4.61,7.8a55.85,55.85,0,0,1,3.34,8.08c1.71-1.71,2.72-4,4.09-6s3.41-3.8,5.82-3.83c2.78,0,5.07,2.3,7.82,2.66a2.24,2.24,0,0,0,1.28-.12c1-.47,1.08-1.82,1-2.9-.79-7.55-5.11-15-3.07-22.32,1.88-6.77,8.6-11,12.13-17.07,2.56-4.41,3.32-9.61,4-14.67.85-6,1.71-12.15,1.33-18.24-.19-3.07-2.63-22.47-7.09-20.44-1.55.7-2.9,3.67-3.87,5l-4,5.67Z" transform="translate(0 -0.01)"/><polygon class="cls-12" points="316.3 233.02 284.13 259.21 242.74 251.81 270.61 229.93 316.3 233.02"/><polygon class="cls-4" points="317.46 231.39 285.29 257.58 243.9 250.18 271.77 228.3 317.46 231.39"/><polygon class="cls-12" points="317.23 230 285.06 256.18 243.66 248.79 271.54 226.9 317.23 230"/><polygon class="cls-4" points="318.16 226.97 285.98 253.16 244.59 245.76 272.47 223.88 318.16 226.97"/><polygon class="cls-12" points="317.92 225.58 285.75 251.77 244.36 244.37 272.23 222.49 317.92 225.58"/><path class="cls-9" d="M741.09,583.44h0a5.18,5.18,0,0,1,6.92,2.39,5,5,0,0,1,.51,1.86l1.79,23.21-10.62,1.92L734.09,596Z" transform="translate(0 -0.01)"/><path class="cls-9" d="M369.54,427.87,207,510.35a11.31,11.31,0,0,0,.08,20.19l350,175.67a42.49,42.49,0,0,0,39.93-1l147.44-83.14a11.31,11.31,0,0,0-.67-20L379.53,427.76A11.28,11.28,0,0,0,369.54,427.87Z" transform="translate(0 -0.01)"/><path class="cls-9" d="M205.92,496l-5.09,3.78-.4,18.1a7.52,7.52,0,0,0,4.08,6.86l356,182.7a5.3,5.3,0,0,0,7.73-4.71V676.44Z" transform="translate(0 -0.01)"/><path class="cls-12" d="M369.54,406.89,207,489.36a11.31,11.31,0,0,0,.05,20.19L557.14,685.22a42.52,42.52,0,0,0,39.93-1l147.44-83.15a11.31,11.31,0,0,0-.67-20L379.53,406.77A11.31,11.31,0,0,0,369.54,406.89Z" transform="translate(0 -0.01)"/><polygon class="cls-9" points="403.18 421.85 224.1 512.78 531.89 666.68 716.57 572.94 403.18 421.85"/><ellipse class="cls-9" cx="644.52" cy="627.51" rx="18.89" ry="11.19"/><circle class="cls-9" cx="300" cy="450.88" r="1.75"/><circle class="cls-9" cx="294.76" cy="464.52" r="2.1"/><line class="cls-15" x1="302.45" y1="461.02" x2="323.44" y2="451.23"/><path class="cls-2" d="M429.14,540.76l59.25-34.21A18,18,0,0,1,513,513.14h0a18,18,0,0,1-6.59,24.58l-59.25,34.21a18,18,0,0,1-24.59-6.58h0A18,18,0,0,1,429.14,540.76Z" transform="translate(0 -0.01)"/><path class="cls-2" d="M482.14,567.76l59.25-34.21A18,18,0,0,1,566,540.14h0a18,18,0,0,1-6.59,24.59l-59.25,34.21a18,18,0,0,1-24.59-6.59h0A18,18,0,0,1,482.14,567.76Z" transform="translate(0 -0.01)"/><path class="cls-2" d="M381.14,509.76l59.25-34.21A18,18,0,0,1,465,482.14h0a18,18,0,0,1-6.59,24.59l-59.25,34.21a18,18,0,0,1-24.59-6.59h0A18,18,0,0,1,381.14,509.76Z" transform="translate(0 -0.01)"/></svg>